<svg width="13" height="12" viewBox="0 0 13 12" fill="none" xmlns="http://www.w3.org/2000/svg">
<path id="Vector" fill-rule="evenodd" clip-rule="evenodd" d="M12.4029 5.55425L12.2655 6.79661C12.0387 8.84274 11.9253 9.86632 11.2155 10.4829C10.507 11.1 9.44378 11.1 7.31624 11.1H5.68428C3.55733 11.1 2.49416 11.1 1.78438 10.4829C1.0746 9.86581 0.961801 8.84274 0.735007 6.79661L0.59701 5.55425C0.489013 4.57912 0.435014 4.09105 0.631809 3.8896C0.681281 3.83708 0.742581 3.79347 0.812121 3.76133C0.88166 3.72919 0.958043 3.70917 1.0368 3.70243C1.32239 3.68101 1.68058 4.02781 2.39756 4.72141C2.76835 5.08045 2.95375 5.25946 3.16014 5.28751C3.27542 5.30279 3.39343 5.28673 3.49734 5.24161C3.68873 5.16001 3.81533 4.93816 4.07032 4.49497L5.41249 2.15712C5.89367 1.31919 6.13427 0.899963 6.50026 0.899963C6.86625 0.899963 7.10684 1.31919 7.58803 2.15712L8.9302 4.49497C9.18459 4.93867 9.31179 5.16001 9.50318 5.24161C9.60878 5.287 9.72517 5.30281 9.84037 5.28751C10.0468 5.25946 10.2322 5.08045 10.603 4.72141C11.3199 4.02781 11.6781 3.68101 11.9637 3.70243C12.0425 3.70917 12.1189 3.72919 12.1884 3.76133C12.2579 3.79347 12.3192 3.83708 12.3687 3.8896C12.5649 4.09105 12.5109 4.57912 12.4029 5.55425ZM4.25032 9.06C4.25032 8.95856 4.29773 8.86127 4.38211 8.78953C4.4665 8.7178 4.58096 8.6775 4.7003 8.6775H8.30021C8.41956 8.6775 8.53401 8.7178 8.6184 8.78953C8.70279 8.86127 8.7502 8.95856 8.7502 9.06C8.7502 9.16145 8.70279 9.25874 8.6184 9.33047C8.53401 9.40221 8.41956 9.4425 8.30021 9.4425H4.7003C4.58096 9.4425 4.4665 9.40221 4.38211 9.33047C4.29773 9.25874 4.25032 9.16145 4.25032 9.06Z" fill="#FBDD33"/>
</svg>
